<svg version="1.1" id="Capa_1" xmlns="http://www.w3.org/2000/svg" xmlns:xlink="http://www.w3.org/1999/xlink" x="0px" y="0px"
	 viewBox="0 0 60.5 86.3" style="enable-background:new 0 0 60.5 86.3;" xml:space="preserve">
<style type="text/css">
	.st0{fill:#76D6C5;}
</style>
<path class="st0" d="M24.3,1.7c-1-0.4-2.1-0.4-3,0.2c-1.1,0.8-1.2,2.1-0.4,3.8c0.5,1,1.2,2,2.2,2.8c0.5,0.5,0.9,1.2,0.9,2l0.8,14.8
	c0,0.5-0.1,1.1-0.3,1.6L3,68.1c0,0.1-0.1,0.2-0.1,0.3C-2,80,6.7,86.6,18.1,82.9l33.5-9.5c7.4-2.2,9.1-8,4.8-17.5
	c0-0.1-0.1-0.1-0.1-0.2l-7.9-22.2c-0.1-0.3-0.2-0.7-0.2-1L48.1,22c0-1.1,0.5-2.1,1.4-2.6c1.4-0.8,2-2.2,0.6-4.4
	c-1.3-1.7-5.8-3.9-10.3-5.9L24.3,1.7z"/>
</svg>
